<svg width="10" height="9" xmlns="http://www.w3.org/2000/svg"><title></title><path d="M8.928 1.08H4.999C4.999.486 4.518 0 3.927 0h-.714C2.622 0 2.14.485 2.14 1.08H1.072C.482 1.08 0 1.567 0 2.162V7.92C0 8.515.481 9 1.072 9h7.856C9.518 9 10 8.515 10 7.92V2.16a1.08 1.08 0 0 0-1.072-1.08ZM4.999 7.2a2.153 2.153 0 0 1-2.142-2.16c0-1.19.96-2.159 2.142-2.159s2.142.968 2.142 2.16C7.141 6.23 6.181 7.2 5 7.2Zm3.392-3.6a.539.539 0 0 1 0-1.079c.296.001.535.244.535.54 0 .297-.239.54-.535.54Z" fill="#FFF" fill-rule="nonzero"/></svg>
