<svg width="149.207" height="12" xmlns="http://www.w3.org/2000/svg"><title></title><path d="M2.628 11.785v-9.52h.149l1.967 9.52H7.95l1.984-9.52h.132v9.52h2.628V.215H7.95l-1.57 8.28-.033.166-.033-.165L4.744.215H0v11.57h2.628ZM21.35 12c1.223 0 2.27-.229 3.14-.686a4.82 4.82 0 0 0 2.025-2c.48-.876.72-1.937.72-3.182 0-1.256-.24-2.347-.72-3.272A5 5 0 0 0 24.474.736C23.592.246 22.55 0 21.35 0s-2.245.245-3.132.736a4.987 4.987 0 0 0-2.05 2.124c-.48.925-.719 2.016-.719 3.272 0 1.234.24 2.292.719 3.174a4.786 4.786 0 0 0 2.041 2.008c.882.457 1.929.686 3.14.686Zm0-2.017c-.948 0-1.686-.344-2.215-1.033-.529-.688-.793-1.628-.793-2.818 0-.782.12-1.482.363-2.099.243-.617.59-1.102 1.042-1.454.451-.353.986-.53 1.603-.53s1.154.177 1.611.53c.458.352.802.837 1.033 1.454.232.617.348 1.317.348 2.1 0 1.19-.265 2.129-.794 2.817-.529.69-1.261 1.033-2.198 1.033Zm11.366 1.802V7.091h1.19c.706.716 1.279 1.416 1.72 2.1.44.682.92 1.547 1.437 2.594h2.513a20.443 20.443 0 0 0-1.422-2.611 17.557 17.557 0 0 0-1.702-2.199c.848-.165 1.507-.534 1.975-1.107.468-.573.702-1.312.702-2.215 0-1.091-.338-1.937-1.016-2.537-.678-.6-1.6-.901-2.769-.901H29.99v11.57h2.727Zm2.43-6.595h-2.43V2.116h2.43c.551 0 .983.146 1.298.438.314.292.47.658.47 1.099 0 .43-.154.793-.462 1.09-.309.298-.744.447-1.306.447Zm9.532 6.595V2.793h.099l2.777 8.992H52V.215h-2.678v9.14h-.215l-2.76-9.14H42v11.57h2.678Zm13.184 0V.215h-2.727v11.57h2.727Zm5.813 0V2.793h.1l2.776 8.992h4.446V.215H68.32v9.14h-.215l-2.76-9.14h-4.348v11.57h2.678ZM80.23 12c.772 0 1.45-.058 2.033-.174a6.87 6.87 0 0 0 1.637-.537V5.174h-3.603V7.24h1.305v2.545c-.352.033-.76.05-1.223.05a4.765 4.765 0 0 1-1.942-.397A3.161 3.161 0 0 1 77 8.174c-.358-.579-.537-1.243-.537-1.992 0-1.389.369-2.424 1.107-3.108.739-.683 1.703-1.024 2.893-1.024.958 0 1.994.187 3.107.562V.628a8.472 8.472 0 0 0-1.578-.446A9.628 9.628 0 0 0 80.149 0c-1.245 0-2.35.267-3.314.802A5.87 5.87 0 0 0 74.57 3c-.545.931-.818 1.992-.818 3.182 0 1.179.278 2.206.835 3.082a5.522 5.522 0 0 0 2.289 2.025c.97.474 2.088.711 3.355.711Zm14.717-.215V7.702h2.81c1.212 0 2.168-.325 2.867-.975.7-.65 1.05-1.57 1.05-2.76 0-1.201-.35-2.127-1.05-2.777-.7-.65-1.655-.975-2.867-.975H92.22v11.57h2.728Zm2.562-6.264h-2.562V2.397h2.562c.55 0 .975.148 1.272.446.298.297.447.672.447 1.124 0 .44-.15.81-.447 1.107-.297.298-.721.447-1.272.447Zm8.523 6.264.876-3.273h3.703l.876 3.273h2.909L111.04.215h-4.545l-3.356 11.57h2.893Zm4.05-5.256h-2.645l1.306-4.843h.033l1.306 4.843Zm9.498 5.256V7.702h2.81c1.212 0 2.168-.325 2.868-.975.7-.65 1.05-1.57 1.05-2.76 0-1.201-.35-2.127-1.05-2.777-.7-.65-1.656-.975-2.868-.975h-5.537v11.57h2.727Zm2.562-6.264h-2.562V2.397h2.562c.551 0 .975.148 1.273.446.297.297.446.672.446 1.124 0 .44-.149.81-.446 1.107-.298.298-.722.447-1.273.447Zm14.887 6.264V9.537h-5.405V7.041h4.695V4.942h-4.695v-2.48h5.405V.216h-8.132v11.57h8.132Zm5.317 0V7.091h1.19c.705.716 1.278 1.416 1.72 2.1.44.682.92 1.547 1.437 2.594h2.513a20.443 20.443 0 0 0-1.422-2.611 17.557 17.557 0 0 0-1.702-2.199c.848-.165 1.507-.534 1.975-1.107.468-.573.702-1.312.702-2.215 0-1.091-.339-1.937-1.016-2.537-.678-.6-1.6-.901-2.769-.901h-5.355v11.57h2.727Zm2.43-6.595h-2.43V2.116h2.43c.55 0 .983.146 1.297.438.314.292.471.658.471 1.099 0 .43-.154.793-.462 1.09-.309.298-.744.447-1.306.447Z" fill="#CCC" fill-rule="nonzero"/></svg>
