<svg width="132.471" height="29" xmlns="http://www.w3.org/2000/svg"><title></title><path d="M29.417 15.958v-2.916H16.919v-.833H28.2V9.42h-11.28v-.833H27.75V.417H1.987v8.17h10.83v.834H1.539v2.788h11.28v.833H.32v2.916h29.097Zm-16.6-9.741H6.089V3.012h6.73v3.205Zm10.832 0h-6.73V3.012h6.73v3.205Zm-11.6-.289V3.813L6.857 3.27v2.114l5.192.545Zm5.64 0 5.19-.545V3.27l-5.19.544v2.115ZM4.71 20.124l2.404-3.557h-4.71L0 20.124h4.71Zm24.578 8.78V25.57H16.983v-1.25h10.703v-3.3H16.983v-.897h4.39l-1.25-3.557h-4.39l1.218 3.493h-4.165l1.217-3.493h-4.39l-1.25 3.557h4.39v.897H2.052v3.3h10.703v1.25H.417v3.333h28.871Zm.449-8.78-2.403-3.557h-4.71l2.403 3.557h4.71ZM44.371 6.12 41.679.16h-4.55l2.691 5.96h4.55ZM62.57 29 62.605.865H45.62v4.006h12.85v20.06h-2.371V29h6.473Zm-22.943 0V6.954h-4.102V29h4.102Zm15.798-5.8V9.229H42.672V23.2h12.754Zm-4.038-4.07H46.71v-5.864h4.678v5.864ZM85.344 29v-4.839H97.65v-3.973H85.344v-3.365h9.582V.545H71.533v16.278h9.582v3.365H68.81v3.973h12.305V29h4.23Zm5.448-22.207H75.667V4.518h15.125v2.275Zm0 6.089H75.667v-2.275h15.125v2.275ZM110.585 29V17.688l3.108-.8v-4.455l-3.108.801V8.492h3.044v-4.07h-3.044V0h-4.166v4.422h-3.237v4.07h3.237v5.832l-3.557.929v4.454l3.557-.93v6.09h-2.468V29h6.634Zm12.817 0a33.76 33.76 0 0 0 2.596-3.236L128.145 29h4.326l-4.326-6.57c1.709-3.075 3.033-6.44 3.973-10.093h-13.042V4.582h7.69l-.191 2.468h-4.615v3.813h8.268L131.285.641h-16.31V29h8.427Zm-4.326-.64V16.085h.096l4.294 6.89a46.804 46.804 0 0 1-4.39 5.383Zm6.537-8.877-2.019-3.397h3.621a29.528 29.528 0 0 1-1.602 3.397Z" fill="#353535" fill-rule="nonzero"/></svg>
