<svg width="14" height="14" xmlns="http://www.w3.org/2000/svg"><title></title><path d="M7 0a7 7 0 1 1 0 14A7 7 0 0 1 7 0Zm0 1.077a5.923 5.923 0 1 0 0 11.846A5.923 5.923 0 0 0 7 1.077Zm.019 8.675a.539.539 0 1 1 0 1.078.539.539 0 0 1 0-1.078Zm-.008-6.52c1.657 0 2.646 1.526 2.153 2.806-.162.42-.383.75-.714 1.117l-.2.212-.286.296c-.307.326-.414.523-.414.787a.539.539 0 1 1-1.077 0c0-.555.2-.961.614-1.425l.092-.1c.07-.074.315-.325.361-.373.315-.332.496-.584.618-.901.227-.589-.261-1.342-1.147-1.342-.81 0-1.26.542-1.233 1l.006.06a.539.539 0 1 1-1.065.161c-.166-1.094.759-2.298 2.292-2.298Z" fill="#979797" fill-rule="nonzero"/></svg>
