<svg width="16" height="16" xmlns="http://www.w3.org/2000/svg"><title></title><path d="M4.588 2.727a1.65 1.65 0 0 1 1.155.477c.147.148.264.321.347.512.087.197.132.41.13.624 0 .451-.158.833-.476 1.145a1.588 1.588 0 0 1-1.155.469c-.214 0-.427-.04-.625-.122a1.487 1.487 0 0 1-.512-.347 1.815 1.815 0 0 1-.347-.512 1.51 1.51 0 0 1-.131-.633c-.001-.215.044-.428.13-.624a1.64 1.64 0 0 1 1.485-.988ZM14.174.195c.59 0 1.01.165 1.258.494.248.33.373.76.373 1.292v12.454c-.002.17-.04.34-.113.494a1.4 1.4 0 0 1-.312.442 1.72 1.72 0 0 1-.46.312c-.18.083-.375.124-.572.122H1.55c-.359 0-.674-.145-.946-.434a1.465 1.465 0 0 1-.409-1.04V1.634c0-.417.116-.76.348-1.033.232-.272.538-.407.92-.407h12.71Zm.068 2.03a.464.464 0 0 0-.146-.339.486.486 0 0 0-.356-.147H2.244a.458.458 0 0 0-.347.147.479.479 0 0 0-.138.339V8.45c.143.168.297.328.46.477.207.191.434.36.677.503.28.165.576.298.885.399.357.114.729.17 1.103.165.625 0 1.174-.101 1.65-.304a7.463 7.463 0 0 0 1.345-.745c.431-.302.846-.626 1.242-.972.417-.362.861-.693 1.328-.99a7.94 7.94 0 0 1 1.64-.78c.614-.216 1.332-.34 2.155-.373V2.225h-.002Z" fill="#FFF" fill-rule="nonzero"/></svg>
