<svg width="22" height="22" xmlns="http://www.w3.org/2000/svg"><title></title><path d="m7.407 13.75 7.186 7.105s-1.43.645-3.593.645c-2.163 0-3.593-.562-3.593-.562V13.75Zm13.102 1.677s-.556 1.468-2.085 2.997c-1.529 1.53-2.938 2.143-2.938 2.143l-5.082-5.081 10.105-.059ZM6.514 10.404l.059 10.105s-1.468-.556-2.997-2.085c-1.53-1.529-2.143-2.938-2.143-2.938l5.081-5.082Zm14.341-2.997s.645 1.43.645 3.592c0 2.163-.563 3.594-.563 3.594H13.75l7.104-7.186Zm-12.606 0-7.104 7.186S.5 13.162.5 11s.563-3.593.563-3.593H8.25Zm7.178-5.916s1.469.556 2.997 2.085c1.53 1.529 2.143 2.938 2.143 2.938l-5.081 5.082-.059-10.105ZM11 .5c2.163 0 3.593.562 3.593.562V8.25L7.407 1.145s.053-.024.154-.062l.144-.053C8.23.845 9.42.5 11 .5Zm-4.486.933 5.082 5.08-10.104.059s.555-1.467 2.084-2.996c1.53-1.53 2.938-2.143 2.938-2.143Z" fill="#FFF" fill-rule="nonzero"/></svg>
