<svg width="21" height="20" xmlns="http://www.w3.org/2000/svg"><title></title><g fill="#FFF" fill-rule="nonzero"><path d="M16.682 4.132C15.696 2.035 13.216.244 10.406.244c-1.478 0-3.729.529-5.413 2.643C3.868 4.303 3.49 5.948 3.728 7.603c.165 1.134.773 2.626 1.643 3.572C5.7 8.78 6.915 6.895 8.51 5.513c2.867-2.293 5.939-2.165 8.173-1.38Z"/><path d="M18.924 7.722c-1.758-2.37-4.805-3.036-7.548-1.978.09.025.18.05.263.085 4.065 1.441 6.267 6.02 4.911 10.224a7.998 7.998 0 0 1-1.667 2.907c.879-.255 1.774-.614 2.538-1.228 3.105-2.464 3.713-7.034 1.503-10.01Z"/><path d="M10.398 15.302a8.243 8.243 0 0 1-1.79-.204c-.074-.017-.14-.026-.222-.017a.94.94 0 0 0-.468.162L6.02 16.505a.39.39 0 0 1-.172.068c-.165.008-.304-.128-.312-.299 0-.076.024-.153.04-.23.009-.042.214-.989.337-1.586a.625.625 0 0 0-.238-.682c-2.004-1.415-3.376-3.64-3.671-5.935-.502.819-.773 1.475-1.035 2.422-.978 3.547 1.166 7.802 4.657 8.996 4.017 1.373 7.852-.17 9.175-3.718a6.63 6.63 0 0 0 .37-1.774c-1.405 1.075-2.892 1.535-4.773 1.535Z"/><path d="M8.608 15.098c-.074-.017-.14-.026-.222-.017a.94.94 0 0 0-.468.162L6.02 16.505a.39.39 0 0 1-.172.068c-.165.008-.304-.128-.312-.299 0-.076.024-.153.04-.23.009-.042.214-.989.337-1.586a.625.625 0 0 0-.238-.682c-2.004-1.415-3.376-3.64-3.671-5.935-.502.819-.773 1.475-1.035 2.422-.978 3.547 1.166 7.802 4.657 8.996 4.017 1.373 7.852-.17 9.175-3.718a6.63 6.63 0 0 0 .37-1.774c-1.405 1.075-2.892 1.535-4.773 1.535a8.243 8.243 0 0 1-1.79-.204Z"/></g></svg>
